<svg id="a62e8c3b-5d11-4b4f-8c1e-37d13c88b59f" data-name="Layer 1" xmlns="http://www.w3.org/2000/svg" viewBox="0 0 396.38 387.95"><title>Plan de travail 7</title><g id="7705a926-9ebc-46f1-944a-157ebb192bfa" data-name="Text"><path id="43d603b3-dcdd-44ca-abde-85d3eb189950" data-name="d" d="M27.85,80.29A25.77,25.77,0,0,1,9,72.52,25.57,25.57,0,0,1,1.24,53.88,25.57,25.57,0,0,1,9,35.23a25.77,25.77,0,0,1,18.84-7.77,26.52,26.52,0,0,1,13.34,3.66q1.06.61,2,1.29V0h11V79.25h-11v-4A26.68,26.68,0,0,1,41,76.68,26.24,26.24,0,0,1,27.85,80.29Zm-.09-42.17A14.55,14.55,0,0,0,16.89,42.8,15.73,15.73,0,0,0,16.84,65a14.52,14.52,0,0,0,10.87,4.63,14.93,14.93,0,0,0,11-4.67,14.9,14.9,0,0,0,4.67-11,15.21,15.21,0,0,0-4.69-11.11A14.78,14.78,0,0,0,27.76,38.12Z" fill="#231f20"/><path id="42650c06-8a51-4c4a-aeb6-9a34877515e9" data-name="e" d="M112.36,62.72a18.13,18.13,0,0,1-5.44,4.83,15.87,15.87,0,0,1-8.2,2.08,12.17,12.17,0,0,1-5.58-1.54L122.2,39.4l-2.56-2.84c-5.46-6.05-12.11-9.11-19.78-9.11A26.39,26.39,0,0,0,80.6,35.21a25.27,25.27,0,0,0-7.83,18.47A25.77,25.77,0,0,0,80.62,72.3a25.32,25.32,0,0,0,18.57,8h.86a25.25,25.25,0,0,0,19.29-8.72l.89-1ZM83.81,53.39a14.5,14.5,0,0,1,4.67-10.61,14.44,14.44,0,0,1,10.57-4.67,15.61,15.61,0,0,1,7.21,1.68L85.42,60.49A15.57,15.57,0,0,1,83.81,53.39Z" fill="#231f20"/><g id="0699407c-9c51-420f-a8a4-3b29e25c70dd" data-name="j"><path id="cebe888b-e38b-4c66-ae25-b8ad3fa64f42" data-name="j" d="M67.61,167.29m-11-25.15h0A11.1,11.1,0,0,1,67.67,131h7.07v11.1H71.3a3.69,3.69,0,0,0-3.69,3.7v44.58a19.08,19.08,0,0,1-6.06,14.46,20.3,20.3,0,0,1-14.38,5.6h-4V199.82h4a9.14,9.14,0,0,0,6.71-2.67,8.8,8.8,0,0,0,2.69-6.73Z" fill="#231f20"/><path id="21c06161-2007-4bb9-9901-d554abfda567" data-name="point" d="M65.38,122.05a9,9,0,1,1,9-9A9,9,0,0,1,65.38,122.05Z" fill="#231f20"/></g><path id="5d2027e5-12dd-48c9-9cc0-c0cd3d479b5f" data-name="a" d="M115.39,182.84a25.79,25.79,0,0,1-18.78-7.76,26.14,26.14,0,0,1,0-37.31A25.82,25.82,0,0,1,115.39,130,26.8,26.8,0,0,1,129,133.78c.6.35,1.18.71,1.74,1.1v-3.83h11V181.8h-11v-3.91c-.63.45-1.28.87-2,1.27A26.23,26.23,0,0,1,115.39,182.84Zm.09-42.17a14.78,14.78,0,0,0-11,4.74,15.21,15.21,0,0,0-4.69,11.11,16,16,0,0,0,15.71,15.66,14.49,14.49,0,0,0,10.86-4.63,15.72,15.72,0,0,0,0-22.2A14.55,14.55,0,0,0,115.48,140.67Z" fill="#231f20"/><path id="89aa5a8d-5d82-442f-90c3-ee29117c58e5" data-name="u" d="M186.07,182.84a22,22,0,0,1-16.25-6.7,22.32,22.32,0,0,1-6.56-16.2V131.05h11v28.89a12,12,0,0,0,3.5,8.64,10.89,10.89,0,0,0,8.27,3.6,12.1,12.1,0,0,0,8.75-3.71,11.46,11.46,0,0,0,3.78-8.53V131.05h11V181.8h-11v-2.27A23.14,23.14,0,0,1,186.07,182.84Z" fill="#231f20"/><path id="a730cc1c-7e26-49cf-be06-1a12be8a640c" data-name="n" d="M277.47,181.8h-11V152.91a12,12,0,0,0-3.51-8.64,10.88,10.88,0,0,0-8.26-3.6,12.11,12.11,0,0,0-8.76,3.71,11.44,11.44,0,0,0-3.77,8.53V181.8h-11V131.05h11v2.27A23.09,23.09,0,0,1,254.66,130a22,22,0,0,1,16.24,6.71,22.33,22.33,0,0,1,6.57,16.2Z" fill="#231f20"/><path id="c4ef2f30-dc5e-4a16-a552-5ffb34e11759" data-name="e" d="M335.55,165.37a18.11,18.11,0,0,1-5.43,4.84,16,16,0,0,1-8.21,2.07,12.17,12.17,0,0,1-5.58-1.54l29.07-28.69-2.57-2.84c-5.45-6.05-12.11-9.11-19.78-9.11a26.37,26.37,0,0,0-19.25,7.76A25.26,25.26,0,0,0,296,156.33,25.85,25.85,0,0,0,303.81,175a25.37,25.37,0,0,0,18.57,8h.86a25.23,25.23,0,0,0,19.3-8.72l.89-1ZM307,156.05a16,16,0,0,1,15.24-15.29,15.59,15.59,0,0,1,7.21,1.68l-20.84,20.7A15.52,15.52,0,0,1,307,156.05Z" fill="#231f20"/><path id="7bfb96cd-0829-49f0-b960-7ce5b8d060f4" data-name="e" d="M158,267.84a18.37,18.37,0,0,1-5.44,4.83,15.88,15.88,0,0,1-8.21,2.07,12.08,12.08,0,0,1-5.57-1.53l29.06-28.7-2.56-2.84c-5.46-6-12.12-9.11-19.79-9.11a26.39,26.39,0,0,0-19.25,7.77,25.23,25.23,0,0,0-7.83,18.46,25.8,25.8,0,0,0,7.85,18.63,25.31,25.31,0,0,0,18.57,8h.85a25.26,25.26,0,0,0,19.3-8.71l.89-1Zm-28.55-9.33a16,16,0,0,1,15.23-15.29,15.59,15.59,0,0,1,7.21,1.69L131.06,265.6A15.65,15.65,0,0,1,129.46,258.51Z" fill="#231f20"/><path id="737abebc-d32c-4dca-abeb-afbfe2754c5c" data-name="t" d="M209.64,284.83h-4a20,20,0,0,1-14.25-5.61,19.11,19.11,0,0,1-6-14.44V215.62h11v18h13.11v10.66H196.43v20.51a9,9,0,0,0,2.66,6.75,8.8,8.8,0,0,0,6.55,2.64h4Z" fill="#231f20"/><path id="3fef0a92-ac2a-495f-964d-5034c6decd9b" data-name="d" d="M302,285.31a26.42,26.42,0,1,1,0-52.84,26.59,26.59,0,0,1,13.35,3.66c.7.41,1.38.84,2,1.3v-32.5h11v79.33h-11v-4c-.73.52-1.49,1-2.28,1.46A26.31,26.31,0,0,1,302,285.31Zm-.09-42.18a14.55,14.55,0,0,0-10.87,4.68,15.72,15.72,0,0,0,0,22.2,14.5,14.5,0,0,0,10.86,4.64A16,16,0,0,0,317.6,259a15.22,15.22,0,0,0-4.69-11.11A14.78,14.78,0,0,0,301.94,243.13Z" fill="#231f20"/><path id="d335fbd7-10a9-459f-b789-f79113ac5a96" data-name="e" d="M386.54,267.84a18.25,18.25,0,0,1-5.44,4.83,15.87,15.87,0,0,1-8.2,2.07,12.12,12.12,0,0,1-5.58-1.53l29.06-28.7-2.56-2.84c-5.46-6-12.11-9.11-19.78-9.11a26.4,26.4,0,0,0-19.26,7.77A25.26,25.26,0,0,0,347,258.79a25.8,25.8,0,0,0,7.85,18.63,25.31,25.31,0,0,0,18.57,8h.86a25.24,25.24,0,0,0,19.29-8.71l.89-1ZM358,258.51a16,16,0,0,1,15.24-15.29,15.62,15.62,0,0,1,7.21,1.69L359.6,265.6A15.52,15.52,0,0,1,358,258.51Z" fill="#231f20"/><path id="151f5693-7038-4d2e-8819-0875a764301f" data-name="b" d="M80.69,387.86a26.28,26.28,0,0,1-13.09-3.61c-.8-.46-1.56-.94-2.29-1.46v4h-11V307.4h11V340c.65-.46,1.33-.89,2-1.3A26.58,26.58,0,0,1,80.69,335a26.42,26.42,0,1,1,0,52.84Zm.1-42.18a14.81,14.81,0,0,0-11,4.74,15.26,15.26,0,0,0-4.69,11.11A16,16,0,0,0,80.83,377.2a14.53,14.53,0,0,0,10.87-4.64,15.73,15.73,0,0,0,0-22.2A14.55,14.55,0,0,0,80.79,345.68Z" fill="#231f20"/><path id="fd2fe334-c621-4dcd-b9e4-84ccd9c694f7" data-name="l" d="M151.57,387.67h-4a20,20,0,0,1-14.25-5.61,19.15,19.15,0,0,1-6-14.45V307.4h11v60.21a9,9,0,0,0,2.66,6.75,8.77,8.77,0,0,0,6.55,2.65h4Z" fill="#231f20"/><path id="cf9174c6-bc7e-4334-9c19-f97ad07d4364" data-name="e" d="M204.84,370.21a18.21,18.21,0,0,1-5.58,5,15.87,15.87,0,0,1-8.2,2.07,12.12,12.12,0,0,1-5.58-1.53l29.06-28.7L212,344.22c-5.46-6-12.11-9.11-19.78-9.11a26.4,26.4,0,0,0-19.26,7.77,25.26,25.26,0,0,0-7.83,18.46A25.8,25.8,0,0,0,173,380a25.31,25.31,0,0,0,18.57,8h.86a25.24,25.24,0,0,0,19.29-8.71l1-1.15h0Zm-28.69-9.15a16,16,0,0,1,15.24-15.29,15.62,15.62,0,0,1,7.21,1.69l-20.84,20.69A15.52,15.52,0,0,1,176.15,361.06Z" fill="#231f20"/><path id="0a7be23d-ddcb-478d-90ad-8f586a501502" data-name="u" d="M253.9,387.86a22,22,0,0,1-16.25-6.71,22.32,22.32,0,0,1-6.56-16.2V336.06h11V365a12,12,0,0,0,3.5,8.65,10.92,10.92,0,0,0,8.27,3.6,12.1,12.1,0,0,0,8.75-3.72,11.42,11.42,0,0,0,3.78-8.53V336.06h11v50.75h-11v-2.26A23.22,23.22,0,0,1,253.9,387.86Z" fill="#231f20"/><path id="0f3de994-6ed0-4abc-b462-bddae16a83b9" data-name="flow large" d="M298.33,80.29c-24.78,0-41.76-6.62-56.73-12.45-11.52-4.49-21.47-8.37-32.91-8.37H163.26v-12h45.43c13.74,0,25.2,4.46,37.34,9.19,14.66,5.71,29.81,11.62,52.3,11.62,23.18,0,39.5-6.44,53.9-12.12,11.33-4.47,22-8.69,33.79-8.69h8.39v12H386c-9.43,0-18.65,3.64-29.31,7.85C342.06,73.1,323.84,80.29,298.33,80.29Z" fill="#231f20"/><path id="8c7c9dfd-0a3a-489d-a535-ee2d58dcf442" data-name="flow tiny" d="M6.55,263.27,0,253.41c.79-.51,19.49-12.51,40-12.51,20.67,0,37.6,12.17,38.31,12.69l-7.09,9.5C71.07,263,56.64,252.7,40,252.7,23.13,252.7,6.71,263.17,6.55,263.27Z" fill="#231f20"/></g></svg>